<svg width="200" height="50" fill="none" xmlns="http://www.w3.org/2000/svg"><path d="M120.211 32.91a8.974 8.974 0 00-.32-1.62c-16.742 2.552-32.626 9.014-47.15 18.71 14.708-8.9 30.68-14.794 47.47-17.09zm56.027 4.902l.021.061c.149.453.319.864.517 1.236 7.802 2.856 15.347 6.509 22.592 10.891-7.381-4.929-15.109-9.02-23.13-12.188zm-21.32-4.449c1.265.209 2.524.432 3.775.682a3.8 3.8 0 00.293-.048c.633-.121 1.17-.358 1.599-.715.115-.095.21-.196.306-.311-1.98-.466-3.973-.884-5.98-1.242v1.634h.007zm-29.143-2.809c.15.54.266 1.107.354 1.701a91.527 91.527 0 012.381-.175v-1.75c-.911.062-1.823.143-2.735.23m8.491-.486v1.77c.598-.007 1.19-.014 1.789-.014 1.592 0 3.17.034 4.748.094a5.015 5.015 0 00.157-1.755 107.598 107.598 0 00-4.905-.115c-.599 0-1.191 0-1.789.014m12.659.546a8.495 8.495 0 01-.218 1.702c.823.074 1.639.162 2.456.25v-1.702a81.502 81.502 0 00-2.238-.25zm19.599 3.849a5.79 5.79 0 01-.884 1.162c1.455.378 2.904.783 4.347 1.215a14.124 14.124 0 01-.136-1.35 119.117 119.117 0 00-3.327-1.034" fill="#EA8712"/><path d="M95.483 45.57h5.544v-8.392a123.82 123.82 0 00-8.83 3.12l3.286 5.266v.007zm-9.476 0v-2.62a131.445 131.445 0 00-5.367 2.62h5.367zm0-15.205l5.72 9.176a115.74 115.74 0 019.307-3.633V23.41h-5.279v12.694L87.612 23.41h-7.36v8.11h-8.504v-8.11h-5.755v22.154h5.755V35.8h8.504v9.534a124.429 124.429 0 015.755-3.099V30.358v.007zm37.197-4.308c-2.047-2.066-4.864-3.1-8.442-3.1-3.578 0-6.401 1.034-8.442 3.1-2.041 2.066-3.061 4.882-3.061 8.447 0 .23 0 .452.013.675a110.689 110.689 0 016.007-1.722c.061-.864.204-1.647.436-2.35.313-.979.721-1.742 1.224-2.302.537-.594 1.129-1.02 1.776-1.276a5.531 5.531 0 012.061-.385 5.54 5.54 0 012.075.398c.666.27 1.251.702 1.762 1.297.496.574.904 1.33 1.217 2.262.313.931.463 2.066.463 3.39 0 1.242-.136 2.322-.402 3.24-.272.919-.687 1.715-1.244 2.39a4.593 4.593 0 01-1.756 1.317 5.353 5.353 0 01-2.115.426 5.498 5.498 0 01-2.116-.419c-.673-.277-1.252-.709-1.755-1.296-.503-.588-.905-1.344-1.204-2.27-.272-.823-.422-1.795-.449-2.93-1.973.466-3.925.973-5.871 1.54.32 2.62 1.3 4.76 2.939 6.435 2.041 2.08 4.85 3.12 8.442 3.12 3.592 0 6.415-1.04 8.456-3.12 2.041-2.08 3.061-4.882 3.061-8.413 0-3.532-1.027-6.375-3.075-8.448m59.816 15.524a5.394 5.394 0 01-1.68.263 5.493 5.493 0 01-2.115-.419 4.644 4.644 0 01-1.756-1.296c-.503-.587-.904-1.344-1.204-2.269-.306-.925-.455-2.052-.455-3.369 0-1.317.156-2.424.469-3.403.313-.98.721-1.742 1.224-2.296.538-.594 1.13-1.02 1.776-1.276a5.531 5.531 0 012.061-.385 5.54 5.54 0 012.075.398c.667.27 1.252.703 1.762 1.297.497.574.905 1.33 1.218 2.262.306.932.462 2.066.462 3.39 0 1.242-.136 2.322-.408 3.24-.272.919-.687 1.716-1.245 2.39a4.677 4.677 0 01-1.258 1.068 122.94 122.94 0 014.959 2.525c.306-.243.598-.506.871-.79 2.04-2.08 3.061-4.882 3.061-8.413 0-3.532-1.027-6.374-3.075-8.447-2.048-2.066-4.864-3.1-8.442-3.1-3.578 0-6.402 1.034-8.442 3.1-2.041 2.066-3.062 4.882-3.062 8.447 0 3.565 1.021 6.333 3.062 8.413 2.04 2.08 4.85 3.12 8.442 3.12 2.864 0 5.238-.662 7.109-1.979a134.517 134.517 0 00-5.415-2.471m-38.857-16.712c-.748-.486-1.612-.85-2.585-1.094-.973-.243-2.17-.364-3.592-.364h-9.476V45.57h5.755v-7.218h3.585c1.626 0 2.993-.223 4.088-.669a9.1 9.1 0 002.973-1.978c.653-.649 1.15-1.439 1.497-2.39a8.396 8.396 0 00.524-2.91c0-1.284-.238-2.378-.715-3.29a5.95 5.95 0 00-2.061-2.248m-3.428 7.273a2.71 2.71 0 01-.803 1.134c-.429.358-.959.594-1.599.709-.632.121-1.442.182-2.422.182h-1.646v-6.624h.987c.952 0 1.707.014 2.279.04a5.468 5.468 0 011.755.392c.449.176.843.493 1.183.946.34.452.51.985.51 1.607 0 .62-.081 1.168-.244 1.614zm24.842 3.566c.647-.649 1.15-1.445 1.497-2.39a8.396 8.396 0 00.524-2.91c0-1.284-.238-2.378-.714-3.29a5.959 5.959 0 00-2.062-2.248c-.748-.486-1.612-.85-2.585-1.093-.973-.243-2.17-.365-3.592-.365h-9.476v22.154h5.755v-7.218h3.313l5.395 7.218h7.034l-6.728-8.575a9.473 9.473 0 001.633-1.29m-10.647-1.533v-6.624h.994c.952 0 1.707.014 2.278.04a5.47 5.47 0 011.756.392c.449.176.843.493 1.183.946.34.452.51.985.51 1.607 0 .62-.081 1.175-.244 1.614a2.774 2.774 0 01-.803 1.134c-.429.358-.959.594-1.599.709-.632.121-1.442.182-2.422.182h-1.653zM42.986 27.698v-4.281H0v4.28h14.116V50h5.755V27.698h6.973V45.57h16.142v-4.288H32.571v-5.47h9.667v-4.287h-9.667v-3.828h10.415zm19.511 11.661c-.116.094-.238.189-.367.29-.422.324-.878.635-1.36.918a8.021 8.021 0 01-1.899.844c-.687.21-1.374.31-2.075.31-.7 0-1.47-.114-2.217-.35a5.437 5.437 0 01-2.041-1.168c-.599-.534-1.095-1.263-1.49-2.195-.395-.932-.592-2.086-.592-3.477s.184-2.451.544-3.383c.368-.932.844-1.675 1.436-2.242.619-.587 1.292-1 2.02-1.256a7.056 7.056 0 012.306-.378c.728 0 1.415.108 2.055.324a10.4 10.4 0 011.782.797c.537.317 1.02.635 1.449.959.13.101.258.196.374.29h.748l.592-4.82a42.29 42.29 0 00-1.428-.649c-.545-.23-1.15-.446-1.823-.635-.64-.169-1.34-.304-2.089-.412a19.145 19.145 0 00-2.537-.155c-1.701 0-3.266.27-4.701.804-1.435.533-2.64 1.296-3.605 2.275a10.15 10.15 0 00-2.306 3.673c-.531 1.432-.796 3.019-.796 4.774 0 1.884.279 3.545.83 4.983.55 1.438 1.333 2.64 2.346 3.6 1.007.965 2.218 1.687 3.62 2.173 1.4.486 2.938.73 4.591.73 1.116 0 2-.054 2.64-.162a18.69 18.69 0 002.054-.48 12.169 12.169 0 001.606-.567c.51-.216 1.047-.453 1.605-.702l-.537-4.74h-.728l-.007.027z" fill="#00809E"/><path d="M192.762 10.196l1.953 2.7H.681v1.446H200l-7.238-4.146z" fill="url(#paint0_linear_2403_37603)"/><path d="M4.734 8.366h-1.3V1.648H1.103V.344H7.06v1.304H4.734v6.718zM10 7.367c.619 0 1.06-.25 1.503-.723l.748.723C11.728 8.055 11 8.5 9.986 8.5c-1.605 0-2.843-1.27-2.843-3.153 0-1.742 1.122-3.16 2.707-3.16 1.762 0 2.653 1.512 2.653 3.268 0 .128-.014.243-.02.378H8.408c.15.986.775 1.533 1.599 1.533H10zm1.238-2.451c-.082-.892-.565-1.594-1.408-1.594-.776 0-1.32.655-1.436 1.594h2.844zm5.102 3.585c-1.647 0-2.864-1.411-2.864-3.14 0-1.728 1.217-3.173 2.877-3.173 1.048 0 1.7.425 2.218 1.04l-.79.925c-.387-.446-.795-.757-1.435-.757-.925 0-1.598.871-1.598 1.938s.68 1.958 1.66 1.958c.598 0 1.04-.31 1.435-.756l.769.824c-.545.662-1.184 1.134-2.266 1.134l-.006.007zm4.7-.135h-1.27V0h1.272v3.255c.353-.574.87-1.067 1.728-1.067 1.251 0 1.972.918 1.972 2.322v3.85H23.47V4.93c0-.94-.428-1.48-1.183-1.48-.756 0-1.252.56-1.252 1.5v3.416h.007zm6.504 0H26.27v-6.05h1.273v.939c.353-.574.87-1.067 1.727-1.067 1.252 0 1.973.918 1.973 2.323v3.848h-1.272V4.93c0-.938-.428-1.479-1.184-1.479-.755 0-1.251.56-1.251 1.5v3.416h.007zm7.87.135c-1.687 0-2.938-1.411-2.938-3.14 0-1.728 1.258-3.173 2.959-3.173 1.7 0 2.945 1.41 2.945 3.153 0 1.742-1.258 3.16-2.972 3.16h.006zm0-5.098c-1.02 0-1.666.871-1.666 1.938s.7 1.958 1.687 1.958c.986 0 1.68-.87 1.68-1.938 0-1.067-.7-1.958-1.7-1.958zm4.334 4.963V0h1.272v8.366h-1.272zm5.769.135c-1.687 0-2.939-1.411-2.939-3.14 0-1.728 1.259-3.173 2.96-3.173 1.7 0 2.945 1.41 2.945 3.153 0 1.742-1.259 3.16-2.973 3.16h.007zm0-5.098c-1.02 0-1.667.871-1.667 1.938s.7 1.958 1.687 1.958c.987 0 1.68-.87 1.68-1.938 0-1.067-.7-1.958-1.7-1.958zm6.727 6.82c-.911 0-1.761-.25-2.476-.723l.47-1.04c.585.399 1.217.642 1.972.642 1.136 0 1.755-.642 1.755-1.857v-.473c-.462.655-1.04 1.115-1.952 1.115-1.3 0-2.517-1.04-2.517-2.843s1.225-2.85 2.517-2.85c.932 0 1.51.473 1.939 1.034v-.905h1.272v4.814c0 2.14-1.068 3.093-2.98 3.093v-.007zm.102-6.86c-.884 0-1.571.661-1.571 1.674s.7 1.681 1.571 1.681 1.626-.675 1.626-1.674c0-1-.748-1.681-1.626-1.681zm7.634 5.172c-.443 1.236-.933 1.695-1.824 1.695-.537 0-.925-.135-1.313-.365l.429-1.033c.23.135.483.23.748.23.354 0 .578-.17.79-.703l-2.307-6.05h1.354l1.571 4.49 1.436-4.49h1.32l-2.205 6.22v.006zm7.972-2.06c0 .54.252.757.68.757.286 0 .538-.068.79-.21v1.135c-.313.195-.674.31-1.143.31-.932 0-1.599-.445-1.599-1.776V3.504h-.7V2.31h.7V.655h1.272v1.661h1.49v1.195h-1.49v2.964zm5.408 2.026c-1.687 0-2.94-1.411-2.94-3.14 0-1.728 1.26-3.173 2.96-3.173s2.946 1.41 2.946 3.153c0 1.742-1.259 3.16-2.973 3.16h.007zm0-5.098c-1.02 0-1.667.871-1.667 1.938s.7 1.958 1.687 1.958c.987 0 1.68-.87 1.68-1.938 0-1.067-.7-1.958-1.7-1.958zm13-1.796h-4.156v2.086h3.68v1.263h-3.68V7.11h4.21v1.263h-5.496V.344h5.449v1.263h-.007zm7.919.581c1.204 0 1.939.837 1.939 2.316v3.862h-1.273V4.929c0-.965-.408-1.479-1.122-1.479-.714 0-1.184.527-1.184 1.5v3.416h-1.272v-3.45c0-.939-.422-1.466-1.122-1.466-.7 0-1.184.574-1.184 1.513v3.403H87.79v-6.05h1.272v.918c.354-.54.837-1.04 1.687-1.04.796 0 1.354.426 1.646 1.067.45-.641 1.041-1.067 1.878-1.067l.007-.006zm6.632 6.3c-.911 0-1.49-.507-1.877-1.067v2.775h-1.272v-7.88h1.272v1.006c.408-.628.986-1.134 1.877-1.134 1.313 0 2.579 1.134 2.579 3.153s-1.259 3.153-2.579 3.153v-.006zm-.292-5.098c-.864 0-1.62.77-1.62 1.944 0 1.175.756 1.945 1.62 1.945.864 0 1.585-.743 1.585-1.945s-.721-1.944-1.585-1.944zm6.809 5.111c-1.687 0-2.939-1.411-2.939-3.14 0-1.728 1.259-3.173 2.959-3.173 1.701 0 2.946 1.41 2.946 3.153 0 1.742-1.258 3.16-2.973 3.16h.007zm0-5.098c-1.02 0-1.667.871-1.667 1.938s.701 1.958 1.687 1.958c.987 0 1.681-.87 1.681-1.938 0-1.067-.701-1.958-1.701-1.958zm9.762 3.059l1.136-4.146h1.272l-1.817 6.097h-1.136l-1.238-4.139-1.251 4.14h-1.136l-1.796-6.098h1.299l1.109 4.146 1.224-4.173h1.082l1.238 4.173h.014zm6.095.905c.619 0 1.061-.25 1.503-.723l.749.723c-.524.688-1.252 1.134-2.266 1.134-1.605 0-2.843-1.27-2.843-3.153 0-1.742 1.122-3.16 2.707-3.16 1.762 0 2.653 1.512 2.653 3.268 0 .128-.013.243-.02.378h-4.075c.15.986.776 1.533 1.599 1.533h-.007zm1.238-2.451c-.082-.892-.565-1.594-1.408-1.594-.776 0-1.32.655-1.436 1.594h2.844zm3.81 3.45h-1.272v-6.05h1.272V3.68c.347-.905.986-1.526 1.959-1.479v1.465h-.075c-1.109 0-1.891.79-1.891 2.397v2.303h.007zm7.741-1.891c0 .54.252.757.681.757.285 0 .537-.068.789-.21v1.135a2.07 2.07 0 01-1.143.31c-.932 0-1.599-.445-1.599-1.776V3.504h-.7V2.31h.7V.655h1.272v1.661h1.49v1.195h-1.49v2.964zm4.041 1.891h-1.272V0h1.272v3.255c.354-.574.871-1.067 1.728-1.067 1.251 0 1.973.918 1.973 2.322v3.85h-1.273V4.93c0-.94-.428-1.48-1.183-1.48-.755 0-1.252.56-1.252 1.5v3.416h.007zm7.796-.999c.619 0 1.061-.25 1.503-.723l.749.723c-.524.688-1.252 1.134-2.266 1.134-1.605 0-2.843-1.27-2.843-3.153 0-1.742 1.122-3.16 2.707-3.16 1.762 0 2.653 1.512 2.653 3.268 0 .128-.013.243-.02.378h-4.075c.15.986.776 1.533 1.599 1.533h-.007zm1.238-2.451c-.082-.892-.565-1.594-1.408-1.594-.776 0-1.32.655-1.436 1.594h2.844zm11.3-3.289h-4.177v2.188h3.707v1.283h-3.707v3.268h-1.293V.344h5.47v1.283zm4.489.689h1.272v6.05h-1.272v-.939c-.354.574-.871 1.067-1.728 1.067-1.252 0-1.973-.918-1.973-2.322V2.316h1.272v3.437c0 .938.429 1.479 1.184 1.479.755 0 1.252-.56 1.252-1.5V2.317h-.007zm4.402 4.159c0 .54.252.757.68.757.286 0 .538-.068.789-.21v1.135c-.313.195-.673.31-1.142.31-.932 0-1.599-.445-1.599-1.776V3.504h-.701V2.31h.701V.655h1.272v1.661h1.49v1.195h-1.49v2.964zm6.408-4.159h1.272v6.05h-1.272v-.939c-.354.574-.871 1.067-1.728 1.067-1.252 0-1.973-.918-1.973-2.322V2.316h1.272v3.437c0 .938.429 1.479 1.184 1.479.755 0 1.251-.56 1.251-1.5V2.317h-.006zm4.135 6.05h-1.272v-6.05h1.272V3.68c.347-.905.987-1.526 1.96-1.479v1.465h-.075c-1.109 0-1.891.79-1.891 2.397v2.303h.006zm5.62-.999c.619 0 1.061-.25 1.503-.723l.748.723c-.523.688-1.251 1.134-2.265 1.134-1.605 0-2.843-1.27-2.843-3.153 0-1.742 1.122-3.16 2.707-3.16 1.762 0 2.653 1.512 2.653 3.268 0 .128-.014.243-.02.378h-4.075c.149.986.775 1.533 1.598 1.533h-.006zm1.238-2.451c-.082-.892-.565-1.594-1.408-1.594-.776 0-1.32.655-1.436 1.594h2.844z" fill="#4D4D4D"/><defs><linearGradient id="paint0_linear_2403_37603" x1=".681" y1="12.269" x2="200" y2="12.269" gradientUnits="userSpaceOnUse"><stop stop-color="#fff" stop-opacity="0"/><stop offset=".03" stop-color="#FDF6EE" stop-opacity=".07"/><stop offset=".13" stop-color="#F9DCBB" stop-opacity=".28"/><stop offset=".24" stop-color="#F4C58E" stop-opacity=".48"/><stop offset=".34" stop-color="#F1B267" stop-opacity=".64"/><stop offset=".46" stop-color="#EEA248" stop-opacity=".77"/><stop offset=".57" stop-color="#EC9630" stop-opacity=".87"/><stop offset=".7" stop-color="#EB8D1F" stop-opacity=".94"/><stop offset=".83" stop-color="#EA8815" stop-opacity=".99"/><stop offset="1" stop-color="#EA8712"/></linearGradient></defs></svg>